# Created by Metasequoia

mtllib big_rocks.mtl

v -32.000000 60.000000 -24.000000
v -52.000000 60.000000 -40.000000
v -61.000000 0.000000 -37.000000
v -32.000000 0.000000 -14.000000
v -16.000000 60.000000 -40.000000
v -32.000000 90.000000 -40.000000
v -56.000000 60.000000 -56.000000
v -67.000000 0.000000 -59.000000
v -20.000000 60.000000 -56.000000
v -15.000000 0.000000 -59.000000
v -9.000000 0.000000 -37.000000
v -30.000000 60.000000 6.000000
v -42.000000 60.000000 18.000000
v -48.000000 0.000000 48.000000
v 0.000000 0.000000 0.000000
v -42.000000 60.000000 0.000000
v -46.000000 60.000000 6.000000
v -64.000000 0.000000 0.000000
v -48.000000 0.000000 -24.000000
v 36.000000 98.000000 -16.000000
v 18.000000 98.000000 -25.000000
v 12.000000 0.000000 -19.000000
v 42.000000 0.000000 -4.000000
v 45.000000 98.000000 -34.000000
v 9.000000 98.000000 -43.000000
v -2.000000 0.000000 -48.000000
v 27.000000 98.000000 -52.000000
v 27.000000 0.000000 -63.000000
v 56.000000 0.000000 -34.000000
v -12.000000 135.000000 18.000000
v -18.000000 135.000000 12.000000
v -2.000000 0.000000 30.000000
v 14.000000 0.000000 46.000000
v -6.000000 135.000000 18.000000
v -6.000000 135.000000 0.000000
v 30.000000 0.000000 -2.000000
v 0.000000 135.000000 6.000000
v 30.000000 0.000000 46.000000
v 46.000000 0.000000 14.000000
# 39 vertices

vt 0.00000 0.00000
# 1 texture vertices

vn -0.82957 0.15064 0.53769
vn -0.80548 0.32248 0.49721
vn -0.60541 0.24245 0.75808
vn -0.61616 0.12948 0.77690
vn 0.92873 0.28253 0.24007
vn 0.70225 0.11704 0.70225
vn 0.69008 0.21812 0.69008
vn 0.83066 0.44302 0.33724
vn -0.68812 0.45875 0.56217
vn -0.92071 0.31515 0.23018
vn -0.95371 0.15726 0.25632
vn 0.00000 0.04994 -0.99875
vn 0.00000 0.23502 -0.97199
vn 0.00000 0.20292 -0.97920
vn 0.00000 0.04994 -0.99875
vn 0.96142 0.09444 -0.25838
vn 0.93635 0.25901 -0.23697
vn 0.96057 0.09315 -0.26197
vn 0.70225 0.11704 0.70225
vn 0.00000 0.47059 -0.88235
vn 0.68041 0.27217 0.68041
vn 0.68041 0.27217 0.68041
vn 0.68041 0.27217 0.68041
vn 0.68041 0.27217 0.68041
vn 0.42679 0.29875 -0.85358
vn 0.42679 0.29875 -0.85358
vn 0.42679 0.29875 -0.85358
vn 0.00000 1.00000 0.00000
vn -0.94444 0.29734 -0.14008
vn -0.94897 0.29566 -0.10972
vn -0.91971 0.24526 0.30657
vn -0.91971 0.24526 0.30657
vn -0.79584 0.29181 -0.53056
vn -0.79584 0.29181 -0.53056
vn 0.42679 0.29875 -0.85358
vn -0.70926 0.08626 0.69965
vn -0.70560 0.08436 0.70357
vn -0.44571 0.08187 0.89143
vn -0.44571 0.08187 0.89142
vn 0.89168 0.10732 0.43975
vn 0.89993 0.10221 0.42389
vn 0.88911 0.10887 0.44456
vn -0.89680 0.08093 0.43498
vn -0.89175 0.07735 0.44587
vn -0.45567 0.09689 -0.88486
vn -0.44498 0.09989 -0.88995
vn -0.44742 0.09921 -0.88880
vn -0.45728 0.09643 -0.88408
vn 0.70489 0.07912 -0.70489
vn 0.70489 0.07912 -0.70489
vn 0.70489 0.07912 -0.70489
vn 0.70489 0.07912 -0.70489
vn 0.90153 0.10119 0.42071
vn -0.70707 0.01048 0.70707
vn -0.70707 0.01048 0.70707
vn -0.43819 0.10086 0.89320
vn -0.32529 0.13157 0.93642
vn 0.00000 0.20309 0.97916
vn -0.69615 -0.17533 -0.69615
vn -0.69615 -0.17533 -0.69615
vn -0.69615 -0.17533 -0.69615
vn 0.84905 0.31446 0.42453
vn 0.84905 0.31446 0.42453
vn 0.84905 0.31446 0.42453
vn 0.69350 0.19521 -0.69350
vn 0.69350 0.19521 -0.69350
vn 0.69350 0.19521 -0.69350
vn 0.00000 0.20309 0.97916
# 68 normal vertices

s 1
usemtl m0
f 1/1/3 2/1/2 3/1/1
usemtl m1
f 1/1/3 3/1/1 4/1/4
usemtl m2
f 1/1/7 4/1/6 5/1/5
usemtl m3
f 1/1/7 5/1/5 6/1/8
usemtl m4
f 1/1/3 6/1/9 2/1/2
usemtl m5
f 2/1/2 6/1/9 7/1/10
usemtl m6
f 2/1/2 7/1/10 8/1/11
usemtl m7
f 2/1/2 8/1/11 3/1/1
usemtl m8
f 7/1/14 9/1/13 10/1/12
usemtl m9
f 7/1/14 10/1/12 8/1/15
usemtl m10
f 9/1/17 5/1/5 11/1/16
usemtl m11
f 9/1/17 11/1/16 10/1/18
usemtl m12
f 5/1/5 4/1/6 11/1/19
usemtl m13
f 6/1/20 9/1/13 7/1/14
usemtl m14
f 9/1/17 6/1/8 5/1/5
usemtl m15
f 12/1/23 13/1/22 14/1/21
usemtl m16
f 12/1/23 14/1/21 15/1/24
usemtl m17
f 12/1/27 15/1/26 16/1/25
usemtl m18
f 12/1/28 16/1/28 17/1/28
usemtl m19
f 12/1/28 17/1/28 13/1/28
usemtl m20
f 13/1/31 17/1/30 18/1/29
usemtl m21
f 13/1/31 18/1/29 14/1/32
usemtl m22
f 17/1/30 16/1/34 19/1/33
usemtl m23
f 17/1/30 19/1/33 18/1/29
usemtl m24
f 16/1/25 15/1/26 19/1/35
usemtl m25
f 20/1/38 21/1/37 22/1/36
usemtl m26
f 20/1/38 22/1/36 23/1/39
usemtl m27
f 20/1/42 23/1/41 24/1/40
usemtl m28
f 20/1/28 24/1/28 25/1/28
usemtl m29
f 20/1/28 25/1/28 21/1/28
usemtl m30
f 21/1/37 25/1/44 26/1/43
usemtl m31
f 21/1/37 26/1/43 22/1/36
usemtl m32
f 25/1/47 27/1/46 28/1/45
usemtl m33
f 25/1/47 28/1/45 26/1/48
usemtl m34
f 27/1/51 24/1/50 29/1/49
usemtl m35
f 27/1/51 29/1/49 28/1/52
usemtl m36
f 24/1/40 23/1/41 29/1/53
usemtl m37
f 25/1/28 24/1/28 27/1/28
usemtl m38
f 30/1/56 31/1/55 32/1/54
usemtl m39
f 30/1/56 32/1/54 33/1/57
usemtl m40
f 30/1/56 33/1/57 34/1/58
usemtl m41
f 30/1/28 34/1/28 31/1/28
usemtl m42
f 31/1/28 34/1/28 35/1/28
usemtl m43
f 31/1/61 35/1/60 36/1/59
usemtl m44
f 31/1/61 36/1/59 32/1/61
usemtl m45
f 37/1/64 34/1/63 38/1/62
usemtl m46
f 37/1/64 38/1/62 39/1/64
usemtl m47
f 37/1/67 39/1/66 35/1/65
usemtl m48
f 37/1/28 35/1/28 34/1/28
usemtl m49
f 34/1/58 33/1/57 38/1/68
usemtl m50
f 35/1/65 39/1/66 36/1/66
# 51 elements

