# Created by Metasequoia

mtllib grass_and_rocks.mtl

v 0.000000 0.000000 -8.000000
v -4.000000 0.000000 8.000000
v 4.000000 12.000000 4.000000
v 16.000000 0.000000 8.000000
v -2.000000 0.000000 -11.000000
v -19.000000 0.000000 -10.000000
v -12.000000 8.000000 -4.000000
v -13.000000 0.000000 9.000000
v -4.000000 0.000000 13.000000
v -7.000000 36.000000 10.000000
v -1.000000 0.000000 11.000000
v 4.000000 0.000000 12.000000
v 0.000000 0.000000 13.000000
v 0.000000 32.000000 10.000000
v 0.000000 0.000000 15.000000
v 6.000000 29.000000 19.000000
v 4.000000 0.000000 23.000000
v 8.000000 0.000000 24.000000
v 4.000000 0.000000 19.000000
v -4.000000 24.000000 25.000000
v -1.000000 0.000000 25.000000
v 0.000000 0.000000 28.000000
v 2.000000 0.000000 24.000000
# 23 vertices

vt 0.00000 0.00000
# 1 texture vertices

vn -0.84432 0.49252 -0.21108
vn -0.97947 0.17676 -0.09689
vn -0.84432 0.49252 -0.21108
vn 0.63960 0.42640 -0.63960
vn 0.63960 0.42640 -0.63960
vn 0.00000 0.31623 0.94868
vn -0.04585 0.62474 -0.77949
vn -0.04585 0.62474 -0.77949
vn 0.72672 0.55867 0.39970
vn 0.72672 0.55867 0.39970
vn 0.72672 0.55867 0.39970
vn -0.81461 0.51985 0.25724
vn -0.81461 0.51985 0.25724
vn -0.81461 0.51985 0.25724
vn -0.99655 -0.08305 0.00000
vn 0.70372 0.09774 -0.70372
vn 0.70372 0.09774 -0.70372
vn 0.70372 0.09774 -0.70372
vn 0.55103 0.11480 0.82655
vn 0.55103 0.11480 0.82655
vn -0.24154 -0.09058 -0.96615
vn -0.24154 -0.09058 -0.96615
vn 0.59537 0.12403 0.79382
vn 0.59537 0.12403 0.79382
vn 0.59537 0.12403 0.79382
vn -1.00000 -0.00000 -0.00000
vn -1.00000 -0.00000 -0.00000
vn -0.23983 0.14886 0.95933
vn 0.77974 -0.05378 -0.62379
vn 0.77974 -0.05378 -0.62379
vn 0.77974 -0.05378 -0.62379
vn -0.99763 0.06880 0.00000
vn -0.99763 0.06880 0.00000
vn -0.99763 0.06880 0.00000
vn -0.94208 -0.11776 0.31403
vn -0.94208 -0.11776 0.31403
vn 0.87621 0.20080 0.43811
vn 0.87621 0.20080 0.43811
vn 0.87621 0.20080 0.43811
vn -0.31598 -0.03950 -0.94794
vn -0.31598 -0.03950 -0.94794
# 41 normal vertices

s 1
usemtl m0
f 1/1/3 2/1/2 3/1/1
usemtl m1
f 1/1/4 3/1/5 4/1/4
usemtl m2
f 4/1/6 3/1/6 2/1/6
usemtl m3
f 5/1/8 6/1/7 7/1/7
usemtl m4
f 5/1/11 7/1/10 8/1/9
usemtl m5
f 8/1/14 7/1/13 6/1/12
usemtl m6
f 2/1/2 9/1/15 10/1/15
usemtl m7
f 2/1/18 10/1/17 11/1/16
usemtl m8
f 11/1/20 10/1/20 9/1/19
usemtl m9
f 12/1/22 13/1/22 14/1/21
usemtl m10
f 12/1/25 14/1/24 15/1/23
usemtl m11
f 15/1/27 14/1/26 13/1/26
usemtl m12
f 16/1/28 17/1/28 18/1/28
usemtl m13
f 16/1/31 18/1/30 19/1/29
usemtl m14
f 16/1/34 19/1/33 17/1/32
usemtl m15
f 20/1/35 21/1/36 22/1/35
usemtl m16
f 20/1/39 22/1/38 23/1/37
usemtl m17
f 20/1/41 23/1/40 21/1/40
# 18 elements

