# Created by Metasequoia

mtllib mushroom.mtl

v 22.000000 61.000000 18.000000
v -1.000000 61.000000 30.000000
v -1.000000 45.000000 36.000000
v 28.000000 45.000000 21.000000
v 28.000000 61.000000 0.000000
v -1.000000 73.000000 0.000000
v -24.000000 61.000000 18.000000
v -30.000000 45.000000 21.000000
v -30.000000 61.000000 0.000000
v -36.000000 45.000000 0.000000
v 34.000000 45.000000 0.000000
v 22.000000 61.000000 -18.000000
v -1.000000 61.000000 -30.000000
v -24.000000 61.000000 -18.000000
v -30.000000 45.000000 -21.000000
v -1.000000 45.000000 -36.000000
v 28.000000 45.000000 -21.000000
v 30.000000 49.000000 -13.000000
v 27.000000 53.000000 -16.000000
v 25.000000 60.000000 -12.000000
v 26.000000 59.000000 -7.000000
v 29.000000 53.000000 -5.000000
v 30.000000 49.000000 -9.000000
v -15.000000 67.000000 -8.000000
v -19.000000 65.000000 -10.000000
v -22.000000 64.000000 -7.000000
v -22.000000 64.000000 -2.000000
v -18.000000 66.000000 -1.000000
v -15.000000 67.000000 -3.000000
v -11.000000 68.000000 12.000000
v -15.000000 64.000000 19.000000
v -9.000000 62.000000 25.000000
v -1.000000 62.000000 25.000000
v 1.000000 66.000000 18.000000
v -3.000000 68.000000 12.000000
v 11.000000 68.000000 -6.000000
v 16.000000 64.000000 -16.000000
v 10.000000 61.000000 -25.000000
v 0.000000 61.000000 -25.000000
v -4.000000 64.000000 -17.000000
v 2.000000 67.000000 -7.000000
v 4.000000 65.000000 16.000000
v 6.000000 63.000000 20.000000
v 10.000000 62.000000 19.000000
v 13.000000 62.000000 15.000000
v 11.000000 64.000000 12.000000
v 7.000000 65.000000 12.000000
v 8.000000 24.000000 -6.000000
v 8.000000 24.000000 7.000000
v 10.000000 23.000000 10.000000
v 10.000000 23.000000 -10.000000
v -8.000000 24.000000 -6.000000
v -10.000000 40.000000 -8.000000
v 10.000000 40.000000 -8.000000
v 10.000000 40.000000 9.000000
v -8.000000 24.000000 7.000000
v -10.000000 23.000000 10.000000
v -8.000000 9.000000 8.000000
v 8.000000 9.000000 8.000000
v 8.000000 9.000000 -8.000000
v -10.000000 23.000000 -10.000000
v -10.000000 40.000000 9.000000
v -8.000000 9.000000 -8.000000
v -16.000000 0.000000 -8.000000
v -16.000000 0.000000 8.000000
v 0.000000 0.000000 16.000000
v 16.000000 0.000000 8.000000
v 16.000000 0.000000 -8.000000
v 0.000000 0.000000 -16.000000
# 69 vertices

vt 0.00000 0.00000
# 1 texture vertices

vn 0.00090 0.35212 0.93595
vn 0.00086 0.64446 0.76464
vn 0.56182 0.66087 0.49760
vn 0.72448 0.36813 0.58276
vn 0.75006 0.66133 -0.00795
vn -0.00000 1.00000 0.00000
vn -0.56961 0.65771 0.49292
vn -0.72761 0.37900 0.57179
vn -0.93238 0.36135 0.00979
vn -0.75006 0.66133 0.00795
vn 0.93238 0.36135 -0.00979
vn 0.56961 0.65771 -0.49292
vn -0.00086 0.64446 -0.76464
vn -0.56182 0.66087 -0.49760
vn -0.72448 0.36813 -0.58276
vn -0.00090 0.35212 -0.93595
vn 0.72761 0.37900 -0.57179
vn 0.89544 0.42035 -0.14659
vn 0.85746 0.41714 -0.30127
vn 0.91306 0.38338 -0.13911
vn 0.90276 0.41914 -0.09672
vn 0.91605 0.39262 -0.08180
vn 0.97014 0.24254 0.00000
vn -0.39708 0.91738 -0.02741
vn -0.40406 0.90914 -0.10102
vn -0.39085 0.91949 -0.04210
vn -0.41449 0.90960 -0.02877
vn -0.40623 0.91273 -0.04371
vn -0.31623 0.94868 0.00000
vn -0.03635 0.90522 0.42339
vn -0.13509 0.89157 0.43227
vn -0.06175 0.90858 0.41312
vn -0.04306 0.89410 0.44578
vn -0.07098 0.89504 0.44031
vn 0.00000 0.94868 0.31623
vn 0.01291 0.93804 -0.34627
vn 0.05349 0.93608 -0.34769
vn -0.00753 0.94791 -0.31844
vn 0.00266 0.93784 -0.34706
vn -0.00966 0.94391 -0.33006
vn -0.08058 0.96699 -0.24175
vn 0.32274 0.90905 0.26357
vn 0.30151 0.90453 0.30151
vn 0.30356 0.91228 0.27494
vn 0.33147 0.89128 0.30944
vn 0.31031 0.89545 0.31919
vn 0.23862 0.95448 0.17896
vn 0.18051 0.96289 0.20063
vn 0.25090 0.95610 0.15143
vn 0.26152 0.95902 -0.10899
vn 0.14411 0.97457 -0.17159
vn -0.26153 0.95902 -0.10899
vn 0.00000 -0.12403 -0.99228
vn -0.00000 -0.12403 -0.99228
vn 0.00000 -0.12403 -0.99228
vn 0.99228 -0.12403 0.00000
vn 0.99228 -0.12403 0.00000
vn 0.99228 -0.12403 0.00000
vn 0.00000 -0.12403 0.99228
vn 0.00000 -0.12403 0.99228
vn 0.00000 -0.12403 0.99228
vn -0.18051 0.96289 0.20063
vn -0.25090 0.95609 0.15143
vn -0.15998 0.24987 0.95497
vn 0.00000 -0.14142 0.98995
vn 0.00000 -0.14142 0.98995
vn 0.15999 0.24987 0.95497
vn 0.98995 -0.14142 0.00000
vn 0.96310 0.26915 0.00000
vn 0.98995 -0.14142 0.00000
vn 0.96309 0.26917 0.00000
vn 0.00000 -0.14142 -0.98995
vn 0.15998 0.24987 -0.95497
vn 0.00000 -0.14142 -0.98995
vn -0.14411 0.97457 -0.17159
vn -0.99228 -0.12403 0.00000
vn -0.99228 -0.12403 0.00000
vn -0.99228 -0.12403 0.00000
vn -0.96310 0.26915 0.00000
vn -0.98995 -0.14142 -0.00000
vn -0.98995 -0.14142 0.00000
vn -0.96309 0.26917 0.00000
vn -0.70061 0.62277 -0.34829
vn -0.70061 0.62276 0.34830
vn 0.00000 0.53318 0.84600
vn 0.70061 0.62277 0.34829
vn 0.70061 0.62276 -0.34830
vn 0.00000 0.53318 -0.84600
vn -0.15999 0.24987 -0.95497
# 89 normal vertices

s 1
usemtl m0
f 1/1/3 2/1/2 3/1/1
usemtl m1
f 1/1/3 3/1/1 4/1/4
usemtl m2
f 1/1/3 4/1/4 5/1/5
usemtl m3
f 1/1/3 5/1/5 6/1/6
usemtl m4
f 1/1/3 6/1/6 2/1/2
usemtl m5
f 2/1/2 6/1/6 7/1/7
usemtl m6
f 2/1/2 7/1/7 8/1/8
usemtl m7
f 2/1/2 8/1/8 3/1/1
usemtl m8
f 7/1/7 9/1/10 10/1/9
usemtl m9
f 7/1/7 10/1/9 8/1/8
usemtl m10
f 5/1/5 4/1/4 11/1/11
usemtl m11
f 5/1/5 11/1/11 12/1/12
usemtl m12
f 5/1/5 12/1/12 6/1/6
usemtl m13
f 6/1/6 12/1/12 13/1/13
usemtl m14
f 6/1/6 13/1/13 14/1/14
usemtl m15
f 6/1/6 14/1/14 9/1/10
usemtl m16
f 6/1/6 9/1/10 7/1/7
usemtl m17
f 9/1/10 14/1/14 15/1/15
usemtl m18
f 9/1/10 15/1/15 10/1/9
usemtl m19
f 14/1/14 13/1/13 16/1/16
usemtl m20
f 14/1/14 16/1/16 15/1/15
usemtl m21
f 13/1/13 12/1/12 17/1/17
usemtl m22
f 13/1/13 17/1/17 16/1/16
usemtl m23
f 12/1/12 11/1/11 17/1/17
usemtl m24
f 18/1/20 19/1/19 20/1/18
usemtl m25
f 18/1/20 20/1/18 21/1/21
usemtl m26
f 18/1/20 21/1/21 22/1/22
usemtl m27
f 18/1/20 22/1/22 23/1/23
usemtl m28
f 24/1/26 25/1/25 26/1/24
usemtl m29
f 24/1/26 26/1/24 27/1/27
usemtl m30
f 24/1/26 27/1/27 28/1/28
usemtl m31
f 24/1/26 28/1/28 29/1/29
usemtl m32
f 30/1/32 31/1/31 32/1/30
usemtl m33
f 30/1/32 32/1/30 33/1/33
usemtl m34
f 30/1/32 33/1/33 34/1/34
usemtl m35
f 30/1/32 34/1/34 35/1/35
usemtl m36
f 36/1/38 37/1/37 38/1/36
usemtl m37
f 36/1/38 38/1/36 39/1/39
usemtl m38
f 36/1/38 39/1/39 40/1/40
usemtl m39
f 36/1/38 40/1/40 41/1/41
usemtl m40
f 42/1/44 43/1/43 44/1/42
usemtl m41
f 42/1/44 44/1/42 45/1/45
usemtl m42
f 42/1/44 45/1/45 46/1/46
usemtl m43
f 42/1/44 46/1/46 47/1/47
usemtl m44
f 48/1/50 49/1/49 50/1/48
usemtl m45
f 48/1/50 50/1/48 51/1/51
usemtl m46
f 48/1/50 51/1/51 52/1/52
usemtl m47
f 48/1/55 52/1/54 53/1/53
usemtl m48
f 48/1/55 53/1/53 54/1/53
usemtl m49
f 48/1/58 54/1/57 49/1/56
usemtl m50
f 49/1/56 54/1/57 55/1/57
usemtl m51
f 49/1/61 55/1/60 56/1/59
usemtl m52
f 49/1/49 56/1/63 57/1/62
usemtl m53
f 49/1/49 57/1/62 50/1/48
usemtl m54
f 50/1/66 57/1/65 58/1/64
usemtl m55
f 50/1/66 58/1/64 59/1/67
usemtl m56
f 50/1/70 59/1/69 51/1/68
usemtl m57
f 51/1/68 59/1/69 60/1/71
usemtl m58
f 51/1/74 60/1/73 61/1/72
usemtl m59
f 51/1/51 61/1/75 52/1/52
usemtl m60
f 52/1/52 61/1/75 56/1/63
usemtl m61
f 52/1/78 56/1/77 62/1/76
usemtl m62
f 52/1/78 62/1/76 53/1/76
usemtl m63
f 56/1/63 61/1/75 57/1/62
usemtl m64
f 57/1/81 61/1/80 63/1/79
usemtl m65
f 57/1/81 63/1/79 58/1/82
usemtl m66
f 58/1/82 63/1/79 64/1/83
usemtl m67
f 58/1/82 64/1/83 65/1/84
usemtl m68
f 58/1/64 65/1/84 66/1/85
usemtl m69
f 58/1/64 66/1/85 59/1/67
usemtl m70
f 59/1/67 66/1/85 67/1/86
usemtl m71
f 59/1/69 67/1/86 60/1/71
usemtl m72
f 60/1/71 67/1/86 68/1/87
usemtl m73
f 60/1/73 68/1/87 69/1/88
usemtl m74
f 60/1/73 69/1/88 63/1/89
usemtl m75
f 60/1/73 63/1/89 61/1/72
usemtl m76
f 55/1/60 62/1/60 56/1/59
usemtl m77
f 63/1/89 69/1/88 64/1/83
# 78 elements

